<?xml version="1.0"?>
<svg xmlns="http://www.w3.org/2000/svg" xmlns:xlink="http://www.w3.org/1999/xlink" xmlns:svgjs="http://svgjs.com/svgjs" version="1.1" width="512" height="512" x="0" y="0" viewBox="0 0 512 512" style="enable-background:new 0 0 512 512" xml:space="preserve"><g><path xmlns="http://www.w3.org/2000/svg" d="m431.40625 147.050781c4.199219 0 7.605469-3.40625 7.605469-7.605469v-83.742187c0-30.714844-24.988281-55.703125-55.703125-55.703125h-288.058594c-30.714844 0-55.703125 24.988281-55.703125 55.703125v3.101563h-8.625c-17.050781 0-30.921875 13.871093-30.921875 30.921874 0 17.050782 13.871094 30.925782 30.921875 30.925782h8.625v21.289062h-8.625c-17.050781 0-30.921875 13.871094-30.921875 30.921875s13.871094 30.925781 30.921875 30.925781h8.625v21.289063h-8.625c-17.050781 0-30.921875 13.871094-30.921875 30.921875s13.871094 30.921875 30.921875 30.921875h8.625v21.292969h-8.625c-17.050781 0-30.921875 13.871094-30.921875 30.921875s13.871094 30.921875 30.921875 30.921875h8.625v21.292968h-8.625c-17.050781 0-30.921875 13.871094-30.921875 30.921876 0 17.050781 13.871094 30.921874 30.921875 30.921874h8.625v3.101563c0 30.714844 24.988281 55.703125 55.703125 55.703125h288.058594c30.714844 0 55.703125-24.988281 55.703125-55.703125v-286.433594c0-4.199219-3.40625-7.605469-7.605469-7.605469s-7.605469 3.40625-7.605469 7.605469v286.433594c0 22.328125-18.164062 40.496094-40.492187 40.496094h-288.058594c-22.328125 0-40.492188-18.167969-40.492188-40.496094v-3.101563h24.839844c17.050782 0 30.921875-13.871093 30.921875-30.921874 0-17.050782-13.871093-30.921876-30.921875-30.921876h-24.839844v-21.292968h24.839844c17.050782 0 30.921875-13.871094 30.921875-30.921875s-13.871093-30.921875-30.921875-30.921875h-24.839844v-21.292969h24.839844c17.050782 0 30.921875-13.871094 30.921875-30.921875s-13.871093-30.921875-30.921875-30.921875h-24.839844v-21.289063h24.839844c17.050782 0 30.921875-13.875 30.921875-30.925781s-13.871093-30.921875-30.921875-30.921875h-24.839844v-21.289062h24.839844c17.050782 0 30.921875-13.875 30.921875-30.925782 0-17.050781-13.871093-30.921874-30.921875-30.921874h-24.839844v-3.101563c0-22.328125 18.164063-40.496094 40.492188-40.496094h186.171875v107.511719c0 2.828125 1.570313 5.425781 4.078125 6.734375 2.503906 1.3125 5.53125 1.125 7.859375-.488281l42.808594-29.6875 42.808593 29.6875c1.296876.902344 2.8125 1.355468 4.332032 1.355468 1.207031 0 2.417968-.285156 3.527344-.867187 2.507812-1.308594 4.078124-3.90625 4.078124-6.734375v-106.785156c18.703126 3.570312 32.890626 20.039062 32.890626 39.769531v83.742187c-.003907 4.199219 3.402343 7.605469 7.601562 7.605469zm-336.09375 275.222657c0 8.667968-7.050781 15.714843-15.714844 15.714843h-48.675781c-8.664063 0-15.714844-7.046875-15.714844-15.714843 0-8.664063 7.050781-15.714844 15.714844-15.714844h48.675781c8.664063 0 15.714844 7.050781 15.714844 15.714844zm0-83.136719c0 8.667969-7.050781 15.714843-15.714844 15.714843h-48.675781c-8.664063 0-15.714844-7.046874-15.714844-15.714843 0-8.664063 7.050781-15.714844 15.714844-15.714844h48.675781c8.664063 0 15.714844 7.050781 15.714844 15.714844zm0-83.136719c0 8.667969-7.050781 15.714844-15.714844 15.714844h-48.675781c-8.664063 0-15.714844-7.046875-15.714844-15.714844 0-8.664062 7.050781-15.714844 15.714844-15.714844h48.675781c8.664063 0 15.714844 7.050782 15.714844 15.714844zm0-83.136719c0 8.667969-7.050781 15.714844-15.714844 15.714844h-48.675781c-8.664063 0-15.714844-7.046875-15.714844-15.714844 0-8.664062 7.050781-15.714843 15.714844-15.714843h48.675781c8.664063 0 15.714844 7.050781 15.714844 15.714843zm0-83.136719c0 8.667969-7.050781 15.714844-15.714844 15.714844h-48.675781c-8.664063 0-15.714844-7.046875-15.714844-15.714844 0-8.664062 7.050781-15.714843 15.714844-15.714843h48.675781c8.664063 0 15.714844 7.050781 15.714844 15.714843zm280.390625 18.464844-35.203125-24.417968c-1.304688-.902344-2.820312-1.355469-4.332031-1.355469-1.515625 0-3.03125.453125-4.335938 1.355469l-35.203125 24.414062v-91.917969h79.078125v91.921875zm0 0" fill="#8b5ae2" data-original="#000000" style=""/><path xmlns="http://www.w3.org/2000/svg" d="m252.105469 353.957031-54.832031-54.832031c-2.972657-2.96875-7.785157-2.96875-10.753907 0s-2.96875 7.785156 0 10.753906l54.832031 54.832032c17.289063 17.292968 40.542969 26.640624 64.355469 26.636718 8.386719 0 16.84375-1.15625 25.128907-3.535156 14.707031-4.230469 28.238281-12.21875 39.121093-23.101562l14.847657-14.851563c8.515624-8.511719 8.515624-22.371094 0-30.886719l-38.769532-38.773437c-8.515625-8.515625-22.371094-8.515625-30.886718 0l-19.335938 19.332031c-3.402344 3.402344-7.925781 5.277344-12.742188 5.277344-4.8125 0-9.335937-1.875-12.742187-5.277344l-58.011719-58.011719c-3.402344-3.402343-5.277344-7.929687-5.277344-12.742187s1.875-9.339844 5.273438-12.738282l19.339844-19.335937c8.515625-8.515625 8.515625-22.375 0-30.890625l-38.773438-38.765625c-8.515625-8.515625-22.371094-8.515625-30.890625 0l-14.847656 14.847656c-17.179687 17.175781-26.636719 40.011719-26.636719 64.300781 0 24.292969 9.457032 47.128907 26.636719 64.304688l16.605469 16.605469c2.96875 2.96875 7.785156 2.96875 10.753906 0s2.96875-7.785157 0-10.753907l-16.605469-16.605468c-14.304687-14.300782-22.183593-33.320313-22.183593-53.546875 0-17.671875 6.015624-34.417969 17.070312-47.90625l47.910156 47.90625c-5.71875 6.164062-8.859375 14.128906-8.859375 22.578125 0 8.878906 3.457031 17.222656 9.730469 23.496094l58.015625 58.015624c6.273437 6.273438 14.617187 9.730469 23.492187 9.730469 8.457032 0 16.421876-3.140625 22.578126-8.859375l47.902343 47.902344c-7.929687 6.476562-17.109375 11.3125-26.917969 14.132812-26.503906 7.609376-55.058593.238282-74.527343-19.238281zm-69.980469-216.15625 38.773438 38.769531c2.585937 2.585938 2.585937 6.792969-.003907 9.382813l-9.472656 9.472656-48.152344-48.152343 9.472657-9.472657c2.585937-2.585937 6.792968-2.589843 9.382812 0zm153.15625 153.152344 38.769531 38.777344c2.585938 2.585937 2.585938 6.792969 0 9.378906l-9.472656 9.472656-48.152344-48.152343 9.476563-9.476563c2.585937-2.585937 6.792968-2.585937 9.378906 0zm0 0" fill="#8b5ae2" data-original="#000000" style=""/></g></svg>
