<?xml version="1.0" encoding="utf-8"?><svg xmlns="http://www.w3.org/2000/svg" xmlns:xlink="http://www.w3.org/1999/xlink" width="1280" height="605" preserveAspectRatio="xMidYMid" viewBox="0 0 1280 605" style="z-index:1;margin-right:-2px;display:block;animation-play-state:paused" ><g transform="" style="animation-play-state:paused" ><linearGradient id="lg-0.24458185568133728" x1="0" x2="1" y1="0" y2="0" style="animation-play-state:paused" ><stop stop-color="#8b5ae2" offset="0" style="animation-play-state:paused" ></stop>


<stop stop-color="#1b0629" offset="1" style="animation-play-state:paused" ></stop></linearGradient>
<path d="M 0 0 L 0 533.468 Q 128 477.091 256 446.918 T 512 422.8 T 768 378.748 T 1024 357.277 T 1280 294.34 L 1280 0 Z" fill="url(#lg-0.24458185568133728)" opacity="0.1" style="opacity:0.1;animation-play-state:paused" ></path>
<path d="M 0 0 L 0 534.128 Q 128 488.217 256 466.199 T 512 477.823 T 768 392.563 T 1024 333.365 T 1280 235.255 L 1280 0 Z" fill="url(#lg-0.24458185568133728)" opacity="0.1" style="opacity:0.1;animation-play-state:paused" ></path>
<path d="M 0 0 L 0 563.24 Q 128 535.475 256 501.081 T 512 481.217 T 768 370.26 T 1024 281.872 T 1280 246.746 L 1280 0 Z" fill="url(#lg-0.24458185568133728)" opacity="0.1" style="opacity:0.1;animation-play-state:paused" ></path>
<path d="M 0 0 L 0 572.005 Q 128 519.824 256 492.959 T 512 422.699 T 768 362.797 T 1024 317.798 T 1280 286.512 L 1280 0 Z" fill="url(#lg-0.24458185568133728)" opacity="0.1" style="opacity:0.1;animation-play-state:paused" ></path>
<path d="M 0 0 L 0 579.987 Q 128 535.349 256 501.299 T 512 438.186 T 768 407.18 T 1024 321.504 T 1280 251.227 L 1280 0 Z" fill="url(#lg-0.24458185568133728)" opacity="0.1" style="opacity:0.1;animation-play-state:paused" ></path></g></svg>
